<svg width="60" height="60" viewBox="0 0 60 60" fill="none" xmlns="http://www.w3.org/2000/svg">
<g filter="url(#filter0_d_507_12069)">
<circle cx="30" cy="30" r="24" fill="white"/>
</g>
<path fill-rule="evenodd" clip-rule="evenodd" d="M28.5714 29.9988L35.4283 23.9414C35.7847 23.6258 35.9972 23.1856 35.9972 22.7131C35.9972 22.4803 35.9453 22.2514 35.8465 22.0402C35.7478 21.8292 35.6048 21.6411 35.4285 21.485C35.0734 21.1705 34.6001 21 34.1141 21C33.8725 21 33.6326 21.0421 33.4077 21.1246C33.1828 21.2071 32.9759 21.3289 32.7996 21.485L24.5722 28.77C24.3951 28.9256 24.251 29.1139 24.1517 29.3248C24.0523 29.5363 24 29.7655 24 29.9988C24 30.232 24.0523 30.4613 24.1517 30.6727C24.251 30.8837 24.3947 31.0715 24.5718 31.2272L32.7989 38.5119C32.9747 38.6688 33.1819 38.7916 33.4068 38.8746C33.6319 38.9576 33.8722 39 34.1141 39C34.356 39 34.5962 38.9576 34.8213 38.8746C35.0461 38.7917 35.2528 38.6693 35.4285 38.5125C35.6055 38.3569 35.7491 38.1692 35.8483 37.9583C35.9477 37.7469 36 37.5177 36 37.2844C36 37.0511 35.9477 36.8219 35.8483 36.6105C35.749 36.3995 35.6053 36.2116 35.4281 36.0559M35.4281 36.0559L28.5714 29.9988L35.4281 36.0559Z" fill="#444444"/>
<defs>
<filter id="filter0_d_507_12069" x="0.270967" y="0.270967" width="59.4581" height="59.4581" filterUnits="userSpaceOnUse" color-interpolation-filters="sRGB">
<feFlood flood-opacity="0" result="BackgroundImageFix"/>
<feColorMatrix in="SourceAlpha" type="matrix" values="0 0 0 0 0 0 0 0 0 0 0 0 0 0 0 0 0 0 127 0" result="hardAlpha"/>
<feOffset/>
<feGaussianBlur stdDeviation="2.86452"/>
<feComposite in2="hardAlpha" operator="out"/>
<feColorMatrix type="matrix" values="0 0 0 0 0 0 0 0 0 0 0 0 0 0 0 0 0 0 0.1 0"/>
<feBlend mode="normal" in2="BackgroundImageFix" result="effect1_dropShadow_507_12069"/>
<feBlend mode="normal" in="SourceGraphic" in2="effect1_dropShadow_507_12069" result="shape"/>
</filter>
</defs>
</svg>
