<svg width="149" height="146" viewBox="0 0 149 146" fill="none" xmlns="http://www.w3.org/2000/svg">
<path d="M137.907 75.0046C137.907 37.5959 107.3 6.98877 70.0329 6.98877C32.6242 6.98877 2.01709 37.5959 2.01709 75.0046C2.01709 112.413 32.6242 142.879 70.0329 142.879C107.3 143.02 137.907 112.413 137.907 75.0046Z" stroke="#0587D6" stroke-width="2.77873" stroke-miterlimit="10" stroke-linecap="round" stroke-linejoin="round"/>
<path d="M126.003 38.3042C130.254 41.8467 130.821 46.6645 133.797 51.0572C134.505 52.0491 134.789 55.8749 135.497 55.8749C136.631 55.8749 139.607 51.4823 140.315 50.6321C141.874 48.3649 143.432 46.3811 144.991 46.3811C145.416 46.3811 145.983 47.373 145.983 47.7981C145.983 48.2232 144.991 48.9317 143.433 51.7657C141.874 54.883 141.307 61.1178 139.182 64.3769C137.623 66.6441 138.756 68.3445 138.756 70.3283C138.473 74.1542 138.615 78.2635 138.048 81.9477L134.08 110.288" stroke="white" stroke-width="4.14188" stroke-miterlimit="10" stroke-linecap="round" stroke-linejoin="round"/>
<path d="M6.26756 72.312C4.99226 81.8059 7.54287 105.328 9.38497 110.571" stroke="white" stroke-width="4.41564" stroke-miterlimit="10" stroke-linecap="round" stroke-linejoin="round"/>
<path d="M11.2266 111.138C10.093 108.02 6.55054 86.0567 6.97564 82.7976" stroke="white" stroke-width="4.14188" stroke-miterlimit="10" stroke-linecap="round" stroke-linejoin="round"/>
<path fill-rule="evenodd" clip-rule="evenodd" d="M108.433 118.931C108.716 120.065 109.424 121.198 110.416 122.049C110.841 122.474 113.676 123.182 114.384 123.041C119.91 121.907 122.603 118.79 128.554 120.348C128.696 120.348 128.837 120.49 128.979 120.49C131.671 113.405 117.785 108.446 120.761 101.361C119.627 99.3767 122.177 97.1095 122.177 94.7007V89.7412C122.036 84.9234 117.926 78.1218 115.659 75.4295L113.676 71.4619C111.408 70.6117 106.732 66.0773 104.323 66.5024C99.6472 66.0773 97.2384 64.9437 94.9712 64.802C93.5542 64.802 91.2869 67.0692 89.1614 67.2109C86.7525 71.0368 76.6919 73.8708 73.8579 66.3607C67.3397 62.96 61.105 62.8183 56.2872 61.543C55.2953 61.2596 55.5786 64.2352 54.445 64.2352L52.7447 65.0854C49.0605 67.3526 45.518 66.6441 42.5423 70.0449L24.4048 90.4497C24.1214 90.7331 21.8542 92.7169 21.4291 92.8586L13.7773 95.976C16.8947 97.9597 18.5951 101.077 17.0364 105.753C16.3279 107.312 15.7611 109.012 14.9109 110.571C16.4696 112.555 17.6032 114.255 18.3117 116.097C18.4534 116.097 18.7368 116.239 19.0202 116.381C19.7287 116.664 20.4372 117.089 21.2874 117.373C21.5708 117.514 21.7125 117.656 22.1376 117.798C23.2712 118.223 24.4048 118.931 25.5384 119.781C26.3886 120.207 26.9554 120.632 27.9473 121.057C28.9392 121.482 30.3561 122.332 31.0646 123.182C32.1982 124.458 32.6234 122.615 31.4898 123.041L31.7731 122.049C32.6233 121.765 32.0566 122.757 33.0484 122.474C34.182 122.049 33.757 120.773 35.4574 120.773C35.8825 120.773 37.5828 117.514 38.0079 117.656C41.9755 109.296 44.2427 103.628 44.9512 104.903C47.0767 108.871 51.7528 118.081 51.7528 124.316C51.7528 125.591 51.7528 128.709 51.6111 129.842C50.4775 136.36 49.0605 139.619 55.5787 141.036C67.7649 143.587 84.202 143.445 97.0967 137.919C101.489 135.935 101.773 131.543 101.773 126.725L101.631 125.875C101.631 121.057 105.315 117.939 106.591 113.972C105.599 113.122 106.874 114.255 108.433 118.931Z" fill="#00A2E5"/>
<path d="M52.603 111.846C52.0362 111.138 49.3439 110.004 47.6436 111.846C48.4938 112.98 49.2023 114.397 49.344 115.814C51.0444 118.789 51.6111 122.19 52.3196 127.15C52.8864 130.975 52.4614 134.66 51.4695 138.202L52.3196 138.06C52.603 136.927 52.7448 135.51 52.8865 135.368C54.1618 131.259 56.0039 125.024 55.2954 120.631C54.4452 114.963 55.1536 115.53 52.603 111.846Z" fill="#85DBF6"/>
<path fill-rule="evenodd" clip-rule="evenodd" d="M119.344 124.458L118.494 123.466L116.793 121.765C116.652 121.624 116.652 121.482 116.652 121.057L117.502 113.688L117.785 112.271C119.627 104.336 123.028 90.8748 123.737 86.7655L123.878 86.057V85.9153L124.02 84.3566C124.02 83.9315 124.02 83.2231 124.02 82.798C124.02 80.6725 123.737 77.6968 123.028 73.0207C122.887 72.0288 122.887 70.4701 122.745 69.0531C122.603 67.6361 122.603 66.2191 122.461 65.6523C121.328 62.2515 121.186 60.8345 119.627 58.4256L118.777 57.4337C118.777 57.4337 118.777 57.292 118.636 57.292C118.636 57.1503 118.494 57.0086 118.494 56.8669L118.352 56.7252H118.21C118.069 56.5835 118.069 56.5835 118.069 56.4418L117.927 56.3001H117.785C117.644 56.3001 117.502 56.3001 117.36 56.1584C117.077 55.875 117.077 55.5916 117.077 55.5916C116.935 55.3082 116.793 55.1665 116.652 54.8831C116.368 54.8831 116.085 54.5997 116.227 54.1746C116.227 53.8912 116.51 53.6079 116.652 53.4662C116.793 53.3245 116.935 53.1827 117.077 53.1827C117.219 52.8993 117.36 52.8993 117.644 53.041C117.785 53.1827 117.927 53.3244 117.927 53.6078C118.352 53.1827 118.352 54.0329 118.21 53.6078C118.21 53.6078 118.069 53.4661 117.927 53.3244L117.644 53.4662C117.502 53.1828 117.36 53.4661 117.502 53.1827L117.927 53.6078V53.4662C118.069 53.4662 118.21 53.3244 118.352 53.3244C118.636 53.1827 118.777 53.8912 118.352 53.4662C118.21 53.3245 117.785 53.4661 117.785 53.3244C118.069 55.1665 119.344 52.7576 119.769 54.5997C120.053 54.7414 120.052 54.8831 120.336 55.0248C120.761 55.4499 121.186 55.875 121.611 56.3001C122.178 56.8669 122.745 57.4337 123.312 58.0005C123.453 57.5754 123.595 57.1503 123.595 56.5835C123.17 55.5916 122.745 54.5997 122.178 53.6078C121.186 51.4824 120.194 49.4986 119.202 47.3731C119.202 47.2314 119.344 47.0897 119.344 47.0897C119.344 46.6646 119.061 46.3812 118.777 46.0978C118.777 45.3893 118.636 44.6808 118.636 43.9723C118.919 43.6889 119.061 43.4055 119.486 42.9804C119.769 43.1221 120.336 43.5472 120.761 44.114C121.328 44.8225 121.611 45.6727 121.753 46.0978C122.603 47.3731 123.453 48.5067 124.304 49.782C126.287 55.3082 126.854 56.4418 126.854 56.4418C127.138 56.3001 126.429 51.9075 125.012 47.3731C123.737 43.4055 122.461 40.8549 123.17 40.1464C123.453 39.7213 124.02 40.0047 124.587 40.1464C124.87 40.5715 125.154 40.9966 125.437 41.4217C126.146 42.697 126.854 44.114 127.563 45.3893C127.988 46.5229 129.688 45.9561 130.113 46.948C130.538 49.782 131.247 50.9155 131.53 51.9074C131.672 52.3325 131.672 52.7577 131.814 52.7577C131.955 52.7577 132.097 54.3163 132.097 53.4662C132.097 52.616 132.097 52.1909 131.955 51.3407C131.672 50.0654 131.672 47.7982 130.397 43.8306C129.546 42.9804 129.121 41.4217 129.263 40.7132C129.263 40.5715 129.688 39.863 129.83 39.5796C130.538 39.863 130.538 39.5796 131.247 39.863C131.814 40.9966 132.805 42.1302 133.372 43.2638C133.656 44.2557 134.081 45.3893 134.364 46.3812C134.222 47.5148 134.931 49.3569 135.498 51.4824C136.065 53.3244 136.206 54.3163 136.773 55.1665C136.773 57.7171 136.206 57.4337 136.631 57.5754C136.915 57.5754 136.915 59.8426 137.198 59.4175C137.482 58.8507 137.056 58.4256 137.482 57.8588C137.623 57.4337 137.623 57.0086 137.765 56.7252C137.907 56.3001 136.915 55.0248 137.198 54.5997C137.482 54.1746 138.19 54.0329 138.474 53.7495C138.757 53.6078 138.19 51.4824 138.474 51.3407C138.757 51.199 139.607 50.0654 139.749 50.0654C140.032 50.0654 140.741 49.782 141.166 49.9237C141.166 49.9237 141.733 49.9237 142.016 50.4905C142.299 50.9155 141.591 53.7495 141.449 54.1746C141.307 54.458 141.024 55.3082 140.882 55.5916C140.741 55.7333 140.741 56.7252 140.599 56.8669C140.032 57.7171 140.599 58.8507 140.032 59.7009C139.607 61.8264 139.04 64.377 138.048 67.211C136.915 70.1867 135.214 70.4701 135.64 74.8628C135.073 76.9883 136.065 80.1057 135.781 83.3648C135.498 86.4821 135.923 89.8829 136.065 92.0084C134.506 101.361 139.324 112.697 132.664 119.782C132.097 124.174 125.721 126.158 121.895 126.158C122.036 124.458 120.194 125.308 119.344 124.458Z" fill="white"/>
<path fill-rule="evenodd" clip-rule="evenodd" d="M29.7901 118.081C28.3731 119.64 25.114 121.907 22.7051 121.907C17.6039 121.907 12.5027 117.231 10.5189 111.279C9.38531 108.162 5.41774 86.1986 5.84284 82.7978C5.98454 80.5306 5.98459 75.4295 5.98459 73.304C5.98459 68.6279 6.55137 68.9113 5.70117 66.5024L5.98459 60.8344C4.56759 57.5753 9.81044 52.3324 7.54325 49.3567C7.25985 48.9316 8.53516 46.6644 8.53516 46.381C8.53516 45.6725 9.81041 45.6725 10.5189 45.6725C11.6525 45.6725 10.5189 48.7899 11.0857 49.3567C12.0776 51.1988 7.82668 51.1988 9.52708 53.6077C9.95218 54.5996 9.24368 51.1988 10.2356 50.9154C11.3692 49.9235 13.2112 46.2393 14.0614 45.5308C17.1788 42.6968 16.612 38.871 20.7213 37.3123C21.7132 37.0289 28.373 38.5876 28.9398 38.5876C30.2151 38.5876 33.4742 44.3972 33.4742 44.6806C33.4742 45.6725 27.0978 53.6077 26.2476 53.7494H33.1908C34.3244 53.8911 33.0492 56.7251 32.199 56.5834C29.7901 56.1583 25.5391 61.4012 25.114 61.8263C23.1302 63.385 21.4298 68.7696 20.1545 71.0368C19.0209 72.5955 17.8873 79.397 19.8711 83.648L27.5229 108.445L29.7901 118.081Z" fill="white"/>
<path fill-rule="evenodd" clip-rule="evenodd" d="M27.5229 120.49C29.0816 118.222 34.7496 108.304 36.0249 105.47C35.5998 102.352 35.033 99.9433 33.4743 98.9514C32.199 97.8178 27.3812 92.5749 26.1059 92.5749C23.2719 92.4332 21.4299 98.1012 21.7133 99.8016C23.4137 106.745 25.6808 113.546 27.5229 120.49Z" fill="white"/>
<path fill-rule="evenodd" clip-rule="evenodd" d="M92.846 51.1989L73.2915 49.4985V59.1341C75.417 62.2515 78.3927 64.9438 83.919 64.9438C84.6275 64.9438 85.3359 64.8021 86.1861 64.6604L86.4695 64.5187C88.595 59.7009 90.8622 55.5916 92.846 51.1989Z" fill="white"/>
<path fill-rule="evenodd" clip-rule="evenodd" d="M98.656 22.2927C97.0974 14.9243 90.0124 12.9405 90.0124 10.6733V7.83936C90.0124 9.82315 87.6035 10.6733 86.0448 10.6733C74.8506 10.6733 67.9072 23.2846 67.9072 32.2117C67.9072 34.7623 68.0489 37.1712 68.1906 39.4384C68.6157 43.831 71.3081 47.3735 74.0004 50.2075C76.8344 53.0415 79.81 55.0253 83.7776 55.0253C87.7452 55.0253 90.8626 52.8998 93.5549 50.2075C96.3889 47.3735 98.3727 43.6893 98.7978 39.4384C99.9314 33.487 99.9313 27.9607 98.656 22.2927Z" fill="white"/>
<path fill-rule="evenodd" clip-rule="evenodd" d="M53.4541 58.9924C53.4541 58.9924 53.8791 50.7738 58.6969 40.9965C58.6969 40.9965 53.3123 27.8185 56.5714 18.8914C59.6888 10.106 65.0734 4.57973 74.5673 1.17894C77.9681 0.0453478 81.5106 -0.0963561 84.4862 0.0453434C91.0044 0.470442 96.8142 4.57973 100.215 10.3894C102.907 15.0655 105.741 21.442 105.033 26.9683C103.899 37.8791 109.425 37.7374 104.041 53.7495C104.041 53.7495 100.64 58.709 106.166 61.8263" fill="white"/>
<path fill-rule="evenodd" clip-rule="evenodd" d="M70.7412 7.98058C70.7412 7.98058 63.798 15.0656 63.6563 30.7942C63.5146 46.5229 65.6401 42.5553 68.7575 51.0572C72.0166 59.5592 69.8911 57.292 71.5915 61.543C73.1502 65.794 76.551 75.713 76.551 75.713L76.4092 77.13C76.4092 77.13 68.8992 73.3041 67.0571 68.3446C67.0571 68.3446 65.7818 73.1624 63.0895 74.5794C63.0895 74.5794 64.3648 62.96 63.9397 62.3932L55.296 63.6685C55.296 63.6685 54.0207 53.1827 60.8223 41.8468C60.8223 41.8468 59.8304 21.3003 60.964 21.3003C60.964 20.8752 63.6563 7.69718 70.7412 7.98058Z" fill="#85DBF6"/>
<path fill-rule="evenodd" clip-rule="evenodd" d="M98.9392 15.9155C98.9392 15.9155 103.899 25.5511 103.474 31.3608C103.049 37.1705 103.474 47.2311 100.923 52.8991C98.2307 58.4254 103.474 62.9598 103.474 62.9598L106.024 65.6521L105.741 66.3606L94.1214 64.5185C94.1214 64.5185 89.8704 72.312 89.8704 76.1378C89.8704 76.1378 84.911 73.8706 92.4211 57.1501C94.4049 52.8991 97.3805 49.0732 99.506 40.2879C100.498 34.7616 99.6477 26.2596 98.9392 15.9155Z" fill="#85DBF6"/>
<path d="M79.5264 3.021L71.3079 6.42178C69.8909 7.27198 66.065 9.96427 64.7897 11.523C62.0974 15.0655 61.2472 18.7496 60.5387 23.1423C60.2553 25.8346 60.1136 28.6686 60.2553 31.3609L60.6804 38.7293C60.8221 40.7131 60.5387 42.2718 59.8302 43.8305L56.5711 51.9073C55.7209 54.0328 55.4375 56.1583 55.2958 58.2838L54.729 64.9437L63.6561 62.3931" stroke="#0587D6" stroke-width="1.67871" stroke-miterlimit="10" stroke-linecap="round" stroke-linejoin="round"/>
<path d="M96.5303 10.2476L100.498 18.7495C102.623 22.7171 103.048 26.9681 103.332 31.7859V39.4377C103.19 43.6887 102.198 49.2149 100.498 53.7493C99.6476 56.2999 100.073 59.1339 101.915 61.1177C102.198 61.5428 102.623 61.8262 102.907 62.2513L105.599 66.5023" stroke="#0587D6" stroke-width="1.67871" stroke-miterlimit="10" stroke-linecap="round" stroke-linejoin="round"/>
<path d="M88.7369 67.778C81.7936 74.1544 75.8422 69.0533 75.8422 69.0533C75.8422 69.0533 71.5912 64.5189 71.0244 56.3003" stroke="#0587D6" stroke-width="1.36315" stroke-miterlimit="10" stroke-linecap="round" stroke-linejoin="round"/>
<path d="M71.4495 60.6924C71.4495 60.6924 74.5669 68.7693 76.6924 76.2793C76.8341 76.7044 76.409 77.2712 75.8422 77.1295C73.4334 76.1376 68.4738 73.3036 66.7734 67.3523" stroke="#0074A5" stroke-width="1.3871" stroke-miterlimit="10" stroke-linecap="round"/>
<path d="M94.4053 64.5186C94.4053 64.5186 100.923 65.5105 105.316 66.644" stroke="#0587D6" stroke-width="1.36315" stroke-miterlimit="10" stroke-linecap="round" stroke-linejoin="round"/>
<path d="M105.458 66.644C105.883 66.644 109.709 69.1946 109.992 69.3363C112.117 71.0367 114.951 73.8707 115.66 75.4294C117.502 77.8383 122.178 88.0407 122.603 89.4577" stroke="#0587D6" stroke-width="2.40889" stroke-miterlimit="10" stroke-linecap="round" stroke-linejoin="round"/>
<path fill-rule="evenodd" clip-rule="evenodd" d="M74.283 49.9232C71.449 47.0892 69.1819 43.405 68.4734 39.154C68.3317 36.8868 68.1899 34.3362 68.1899 31.9273C68.1899 31.6439 68.1899 31.2189 68.1899 30.7938C68.3316 32.7775 68.3317 34.3362 68.4734 35.8949C68.8985 40.2876 71.5907 45.1054 74.283 47.9394C76.9753 50.7734 80.0927 52.7572 84.0603 52.7572C88.0279 52.7572 91.1453 50.7734 93.8376 47.9394C96.6716 45.1054 98.6553 40.2876 99.0804 35.8949C99.3638 33.7694 99.5056 31.6439 99.5056 29.6602C99.6473 32.9192 99.3638 35.8949 99.0804 39.2957C98.3719 43.6884 96.2465 47.2309 93.8376 50.0649C91.0036 52.8989 88.0279 54.8827 84.0603 54.8827C79.8093 55.0244 76.8336 53.0406 74.283 49.9232Z" fill="#85DBF6"/>
<path fill-rule="evenodd" clip-rule="evenodd" d="M90.1544 10.3895C90.1544 12.3733 87.7455 13.2235 86.1869 13.2235C74.9926 13.2235 68.0493 23.0007 68.0493 31.9278C68.0493 42.5553 70.5999 50.7738 73.5756 58.9924C70.0331 54.7414 63.7983 42.9804 63.7983 33.3448C63.7983 25.9764 64.5068 17.0494 68.4744 10.9563C72.0169 5.71339 78.2517 2.1709 84.0614 2.1709C91.1463 2.1709 98.6564 8.12228 98.6564 19.7416C98.6564 19.8833 98.6564 20.025 98.6564 20.1667L98.9398 22.4339C97.3811 15.0656 90.2962 15.6324 90.2962 13.6486V10.8146H90.0128L90.1544 10.3895Z" fill="#85DBF6"/>
<path d="M96.9552 62.2515C96.9552 62.2515 89.02 67.211 90.5787 77.6968C83.0686 72.4539 95.6799 51.199 97.522 46.3812C99.5058 41.4217 100.073 36.0371 100.073 30.7942C100.073 27.3934 99.3641 23.9926 98.7973 20.1667C98.7973 20.025 98.7973 19.8833 98.7973 19.7416C98.7973 8.26398 91.2872 2.1709 84.2022 2.1709C78.6759 2.1709 72.2994 5.71339 68.6152 10.9563C64.7894 17.0494 63.9392 25.9764 63.9392 33.3448C63.9392 39.2962 64.3643 44.9642 65.2145 51.0572C66.6315 62.2515 68.8987 71.0369 62.5222 75.0045C62.5222 75.0045 66.3481 63.3851 62.2388 53.1827" stroke="#0587D6" stroke-width="1.67871" stroke-miterlimit="10" stroke-linecap="round" stroke-linejoin="round"/>
<path d="M88.8792 4.86328C89.5877 5.85518 90.1544 9.25597 90.1544 10.3896C90.1544 12.3734 87.7455 13.2236 86.1868 13.2236C74.9926 13.2236 68.0493 23.0008 68.0493 31.9279C68.0493 42.5554 70.5999 50.7739 73.5756 58.9925C70.0331 54.7415 63.7983 42.9805 63.7983 33.3449" stroke="#0587D6" stroke-width="1.67871" stroke-miterlimit="10" stroke-linecap="round" stroke-linejoin="round"/>
<path d="M90.1543 10.3896V13.2236C90.1543 15.4908 97.2393 14.7823 98.798 22.009" stroke="#0587D6" stroke-width="1.36315" stroke-miterlimit="10" stroke-linecap="round" stroke-linejoin="round"/>
<path d="M68.4741 39.2964C68.8992 43.6891 71.5915 47.2316 74.2838 50.0656C77.1178 52.8995 80.0935 54.8833 84.0611 54.8833C88.0287 54.8833 91.1461 52.7578 93.8384 50.0656C96.5307 47.2316 98.6561 43.5474 99.0812 39.2964" stroke="#0587D6" stroke-width="1.36315" stroke-miterlimit="10" stroke-linecap="round" stroke-linejoin="round"/>
<path d="M85.9026 6.42188C74.85 6.42188 68.0484 13.7903 66.4897 24.5594" stroke="#0587D6" stroke-width="1.36315" stroke-miterlimit="10" stroke-linecap="round" stroke-linejoin="round"/>
<path d="M79.5262 29.5188C77.5424 28.2435 75.5587 27.9601 73.2915 29.3771" stroke="#00A2E5" stroke-width="1.36315" stroke-miterlimit="10" stroke-linecap="round" stroke-linejoin="round"/>
<path fill-rule="evenodd" clip-rule="evenodd" d="M77.118 28.3854C77.8265 28.5271 78.2516 29.0939 78.1099 29.8024C77.9682 30.5109 77.4014 30.936 76.6929 30.7943C75.9844 30.6526 75.5593 30.0858 75.701 29.3773C75.8427 28.5271 76.5512 28.2437 77.118 28.3854Z" fill="#0587D6"/>
<path fill-rule="evenodd" clip-rule="evenodd" d="M83.9188 47.6567C86.7528 47.6567 87.7447 45.3895 89.1616 43.9725C86.8945 42.9806 86.6111 43.264 85.4775 43.264C84.769 43.264 84.2022 43.5474 83.4937 43.5474C83.0686 43.5474 82.3601 43.264 81.5099 43.264C80.518 43.264 80.0929 43.264 77.8257 43.9725C80.0929 45.3895 80.9431 47.6567 83.9188 47.6567Z" fill="#00A2E5"/>
<path d="M90.1536 43.8301C88.5949 44.5386 86.3278 45.1054 83.9189 45.1054C81.51 45.1054 79.2428 44.6803 77.6841 43.8301" stroke="#0587D6" stroke-width="1.36315" stroke-miterlimit="10" stroke-linecap="round" stroke-linejoin="round"/>
<path d="M80.8013 38.3042C82.0766 38.3042 82.7851 39.5795 83.9187 39.5795C85.0523 39.5795 85.9024 38.3042 87.036 38.3042" stroke="#0587D6" stroke-width="1.36315" stroke-miterlimit="10" stroke-linecap="round" stroke-linejoin="round"/>
<path d="M88.4536 29.5193C90.4374 28.244 92.2795 27.9606 94.6884 29.3776" stroke="#00A2E5" stroke-width="1.36315" stroke-miterlimit="10" stroke-linecap="round" stroke-linejoin="round"/>
<path fill-rule="evenodd" clip-rule="evenodd" d="M90.5793 28.3854C91.2878 28.2437 91.8546 28.5271 91.9963 29.3773C92.138 30.2275 91.8546 30.6526 91.0044 30.7943C90.296 30.936 89.7292 30.6526 89.5875 29.8024C89.4458 29.2356 90.0125 28.3854 90.5793 28.3854Z" fill="#0587D6"/>
<path d="M84.486 26.6839H83.2108C81.7938 26.6839 78.8181 25.5503 76.2675 25.5503H69.0408C69.0408 30.5098 68.6157 34.0523 74.5671 34.0523C83.069 34.0523 81.5104 27.9592 82.9274 27.9592H84.2026C85.7613 27.9592 84.0609 34.0523 92.5629 34.0523C98.656 34.0523 98.0892 30.3681 98.0892 25.5503H90.8625C89.0204 25.5503 85.903 26.6839 84.486 26.6839Z" stroke="#0587D6" stroke-width="1.28932" stroke-miterlimit="10" stroke-linecap="round" stroke-linejoin="round"/>
<path fill-rule="evenodd" clip-rule="evenodd" d="M118.919 124.315C117.36 122.048 112.684 114.538 111.409 112.129C112.401 105.328 117.644 101.502 122.178 100.227L118.919 124.315Z" fill="white"/>
<path d="M11.6522 51.7652C10.802 52.7571 11.0854 50.4899 12.0773 49.0729C11.2271 49.3563 13.2108 48.5061 12.644 47.5142C11.3687 44.9636 11.7938 45.5304 10.3769 44.5385C9.81005 44.1134 7.40113 44.8219 6.97603 46.5223C6.83433 46.8057 6.9761 49.6397 5.9842 50.7733C5.7008 51.0567 5.13397 54.174 5.41737 54.5991C5.27567 56.7246 4.14206 57.4331 5.13395 60.2671L6.26753 65.51C7.11773 68.0606 6.6927 65.0849 6.6927 69.6193C6.6927 71.8865 7.25944 70.3278 7.25944 72.3116" stroke="white" stroke-width="3.70105" stroke-miterlimit="10" stroke-linecap="round" stroke-linejoin="round"/>
<path fill-rule="evenodd" clip-rule="evenodd" d="M23.9796 53.466C25.9633 53.3243 26.5301 53.6077 26.105 55.4498C29.9309 55.3081 29.6476 56.4417 27.6638 58.2838C29.6476 58.9923 29.2225 60.4092 26.3885 62.5347L23.8379 62.1096L23.9796 53.466Z" fill="white"/>
<path d="M20.0122 69.7612C18.8787 71.3199 18.3119 80.9555 19.5872 85.3482L28.5142 110.287" stroke="#0587D6" stroke-width="1.36315" stroke-miterlimit="10" stroke-linecap="round" stroke-linejoin="round"/>
<path d="M31.7734 122.615C41.6924 116.381 43.8179 101.927 45.0932 104.62C47.2187 108.587 52.0365 118.223 52.0365 124.458C52.0365 129.417 51.328 134.235 49.0608 138.628" stroke="#0587D6" stroke-width="2.40889" stroke-miterlimit="10" stroke-linecap="round" stroke-linejoin="round"/>
<path fill-rule="evenodd" clip-rule="evenodd" d="M35.3161 104.478C35.3161 104.478 38.5751 117.939 33.8991 120.915C33.8991 120.915 31.3485 122.049 29.0813 119.64C28.9396 119.498 35.5995 118.223 35.3161 104.478Z" fill="#85DBF6"/>
<path d="M22.9878 91.4414L35.8824 77.8382C37.1577 75.571 38.5747 73.0204 41.5504 70.8949C43.5342 69.4779 46.7933 66.7857 49.2022 66.2189L54.445 64.6602" stroke="#0587D6" stroke-width="2.40889" stroke-miterlimit="10" stroke-linecap="round" stroke-linejoin="round"/>
<path d="M112.401 121.907C108.575 120.915 105.599 112.98 105.174 114.255C103.899 118.081 101.206 120.915 101.206 125.733C101.206 128.142 100.498 131.826 101.206 134.235" stroke="#0587D6" stroke-width="2.40889" stroke-miterlimit="10" stroke-linecap="round" stroke-linejoin="round"/>
<path d="M104.75 133.385C94.4054 139.478 82.7861 142.737 70.1749 142.737C60.2559 142.737 50.6203 140.47 41.835 136.644" stroke="white" stroke-width="5.55731" stroke-miterlimit="10" stroke-linecap="round" stroke-linejoin="round"/>
<path d="M106.449 132.393C95.8216 139.194 83.4938 143.02 70.174 143.02C58.9798 143.02 48.2106 140.186 38.8584 135.51" stroke="#0587D6" stroke-width="2.77873" stroke-miterlimit="10" stroke-linecap="round" stroke-linejoin="round"/>
<path d="M118.919 124.316C117.36 122.049 112.826 114.964 111.409 112.271" stroke="#0587D6" stroke-width="1.36315" stroke-miterlimit="10" stroke-linecap="round" stroke-linejoin="round"/>
<path d="M54.4457 67.9189C53.1704 68.344 48.6361 69.4776 45.6604 71.4614C43.3932 72.8784 41.5511 74.8622 39.9924 76.9877L36.1665 82.6557" stroke="#85DBF6" stroke-width="1.36315" stroke-miterlimit="10" stroke-linecap="round" stroke-linejoin="round"/>
<path d="M23.1299 92.4333C23.1299 92.4333 36.7331 95.6924 37.5833 110.571C37.725 112.838 37.2998 115.105 36.3079 117.089C31.3484 127.291 27.2392 119.498 28.3728 121.057" stroke="#0587D6" stroke-width="3.14431" stroke-miterlimit="10" stroke-linecap="round" stroke-linejoin="round"/>
<path d="M119.911 100.085C112.826 105.328 109.142 111.421 110.133 116.38C111.125 121.34 112.259 123.324 116.085 122.473" stroke="#0587D6" stroke-width="3.14431" stroke-miterlimit="10" stroke-linecap="round" stroke-linejoin="round"/>
<path d="M27.5229 120.49C27.5229 120.49 36.1667 108.87 36.5918 103.911" stroke="#0587D6" stroke-width="1.8496" stroke-miterlimit="10" stroke-linecap="round" stroke-linejoin="round"/>
<path d="M24.9724 92.5752C23.4137 94.559 23.272 94.9841 23.272 94.9841" stroke="#0587D6" stroke-width="1.8496" stroke-miterlimit="10" stroke-linecap="round" stroke-linejoin="round"/>
<path d="M106.732 125.591L116.793 126.583C118.21 128.992 119.344 130.976 120.761 133.526" stroke="white" stroke-width="5.03614" stroke-miterlimit="10" stroke-linejoin="round"/>
<path d="M27.806 124.316C20.1542 127.575 13.2109 122.757 13.2109 122.757" stroke="white" stroke-width="5.55731" stroke-miterlimit="10" stroke-linejoin="round"/>
<path d="M55.7209 79.8223C55.7209 79.8223 42.2594 87.1906 46.0853 106.462" stroke="#0587D6" stroke-width="2.40889" stroke-miterlimit="10" stroke-linecap="round"/>
<path d="M103.757 82.7981C103.757 82.7981 114.384 95.126 105.174 114.255" stroke="#0587D6" stroke-width="2.40889" stroke-miterlimit="10" stroke-linecap="round" stroke-linejoin="round"/>
<path d="M137.482 55.3076C138.048 54.5991 138.615 54.8825 138.899 54.174C139.607 52.4736 138.19 51.1983 140.032 49.7813C141.591 48.9311 142.583 49.923 142.583 49.923C142.583 49.923 142.158 53.1821 140.882 56.8663C140.457 57.9999 139.749 61.9675 139.607 63.1011C139.04 65.7934 138.19 67.4938 136.773 69.9027C135.498 72.0282 136.348 79.9633 136.206 83.7892L137.057 109.72C137.34 115.247 131.105 125.307 126.996 125.449C125.012 125.591 120.478 125.732 118.919 124.032" stroke="#0587D6" stroke-width="1.417" stroke-miterlimit="10" stroke-linecap="round" stroke-linejoin="round"/>
<path d="M137.907 59.9841C137.907 59.8424 138.049 57.8586 137.624 56.1582C137.199 54.5996 136.207 51.3405 136.207 51.3405C136.207 51.3405 133.656 40.1462 131.672 39.5794C130.397 39.296 130.114 40.4296 130.114 40.9964C130.114 40.9964 133.798 49.6401 132.948 53.8911" stroke="#0587D6" stroke-width="1.417" stroke-miterlimit="10" stroke-linecap="round" stroke-linejoin="round"/>
<path d="M125.013 41.4216C124.304 38.871 126.996 39.0127 127.705 40.288" stroke="#0587D6" stroke-width="1.417" stroke-miterlimit="10" stroke-linecap="round" stroke-linejoin="round"/>
<path d="M119.344 111.563C119.485 103.911 124.445 84.6396 124.87 81.8056C125.153 80.8137 125.578 78.9716 125.862 77.6963C126.287 75.5708 126.145 73.587 125.72 71.3198C125.578 70.6113 125.578 70.1862 125.153 69.7611C124.586 68.9109 123.736 67.3522 123.878 66.2187C123.878 65.2268 123.878 64.3765 123.736 63.243C122.886 59.7005 122.603 58.1418 121.186 55.5912C120.902 54.741 116.793 50.9151 117.36 49.9232C118.918 48.0811 122.886 54.0325 123.736 54.8827L125.437 57.0082C126.854 53.4657 120.619 46.6641 120.194 43.6884C120.194 43.2633 120.194 42.9799 120.335 42.8382C120.619 42.1297 121.894 41.988 122.461 42.5548" stroke="#0587D6" stroke-width="1.417" stroke-miterlimit="10" stroke-linecap="round" stroke-linejoin="round"/>
<path d="M129.264 56.0166C128.13 49.9236 122.462 42.5552 122.462 42.5552" stroke="#0587D6" stroke-width="1.417" stroke-miterlimit="10" stroke-linecap="round" stroke-linejoin="round"/>
<path d="M125.013 41.7056C125.438 42.2724 130.256 53.6083 129.122 56.0172" stroke="#0587D6" stroke-width="1.417" stroke-miterlimit="10" stroke-linecap="round" stroke-linejoin="round"/>
<path d="M127.563 40.2876C129.83 43.2633 132.948 54.1742 132.948 54.1742" stroke="#0587D6" stroke-width="1.417" stroke-miterlimit="10" stroke-linecap="round" stroke-linejoin="round"/>
<path d="M9.66797 59.1344C9.66797 58.9927 10.3764 54.7417 11.2266 53.3247C11.9351 51.9077 14.0606 49.2155 14.0606 49.2155C14.0606 49.2155 17.7448 39.2965 21.8541 39.1548C22.846 39.4382 22.9877 40.1467 22.5626 40.9969C22.5626 40.9969 16.8946 47.7985 16.4695 52.0494" stroke="#0587D6" stroke-width="1.417" stroke-miterlimit="10" stroke-linecap="round" stroke-linejoin="round"/>
<path d="M27.665 42.8389C28.3735 41.2802 26.673 40.43 25.6812 41.2802" stroke="#0587D6" stroke-width="1.417" stroke-miterlimit="10" stroke-linecap="round" stroke-linejoin="round"/>
<path d="M20.0132 69.6193C21.7136 67.7772 22.1387 66.5019 23.1306 64.0931C24.6893 61.2591 24.9727 59.1336 27.3816 57.4332C27.8067 57.1498 33.0496 52.4737 32.1994 51.6235C31.2075 49.498 26.1063 54.8826 25.2561 55.3077L22.7055 56.2996C23.414 53.1822 29.3653 49.2146 31.0657 46.3806C31.4908 45.3887 30.6407 44.2551 29.3654 44.6802" stroke="#0587D6" stroke-width="1.417" stroke-miterlimit="10" stroke-linecap="round" stroke-linejoin="round"/>
<path d="M19.3047 54.7408C20.8634 51.3401 29.3654 44.6802 29.3654 44.6802" stroke="#0587D6" stroke-width="1.417" stroke-miterlimit="10" stroke-linecap="round" stroke-linejoin="round"/>
<path d="M27.5232 42.98C26.9564 43.4051 19.1629 52.4738 19.3046 54.5993" stroke="#0587D6" stroke-width="1.417" stroke-miterlimit="10" stroke-linecap="round" stroke-linejoin="round"/>
<path d="M25.539 41.2803C21.9965 43.1224 16.4702 52.1911 16.4702 52.1911" stroke="#0587D6" stroke-width="1.417" stroke-miterlimit="10" stroke-linecap="round" stroke-linejoin="round"/>
<path d="M26.9556 120.774C26.9556 120.774 16.0447 127.292 9.52657 108.163C8.95977 105.045 6.69256 78.9727 8.53466 67.2116C7.68446 64.5193 7.82614 64.9444 6.83424 62.1104C6.55085 61.4019 6.40911 60.2683 6.26741 59.2764C6.12571 58.1428 6.26745 56.8676 6.83424 55.734C7.25934 54.7421 7.54274 53.7502 7.54274 51.9081C7.54274 51.6247 7.54276 51.1996 7.82616 50.9162C8.25126 50.066 9.24315 47.9405 9.24315 46.0984L9.66824 45.9567C9.66824 45.9567 11.5103 45.2482 12.0771 47.0903C12.5022 48.5073 10.8018 49.6409 11.0852 51.3413C11.2269 52.1915 11.0852 52.4749 11.5103 53.3251" stroke="#0587D6" stroke-width="1.417" stroke-miterlimit="10" stroke-linecap="round" stroke-linejoin="round"/>
</svg>
